<?xml version="1.0" encoding="UTF-8"?>
<svg id="_レイヤー_1" data-name="レイヤー_1" xmlns="http://www.w3.org/2000/svg" version="1.1" viewBox="0 0 500 184">
  <!-- Generator: Adobe Illustrator 29.3.1, SVG Export Plug-In . SVG Version: 2.1.0 Build 151)  -->
  <defs>
    <style>
      .st0, .st1 {
        fill: #d1dfa5;
      }

      .st2, .st3 {
        opacity: .4;
      }

      .st3, .st4, .st5 {
        fill: #e38c9c;
      }

      .st4, .st1 {
        opacity: .5;
      }
    </style>
  </defs>
  <g id="a">
    <g class="st2">
      <polygon class="st5" points="499.6 16.8 472.8 16.8 472.8 137.4 499.6 137.4 499.6 16.8 499.6 16.8"/>
    </g>
    <path class="st3" d="M439.7,43.6c18.5,0,33.5,15,33.5,33.5s-15,33.5-33.5,33.5-33.5-15-33.5-33.5,15-33.5,33.5-33.5M439.7,16.8c-33.3,0-60.3,27-60.3,60.3s27,60.3,60.3,60.3,60.3-27,60.3-60.3-27-60.3-60.3-60.3h0Z"/>
    <path class="st4" d="M499.6,83.7v-13.2c-2-18.3-12.2-34.1-26.8-43.8v45.4c.2,1.6.4,3.3.4,4.9s-.1,3.3-.4,4.9v45.4c14.6-9.6,24.8-25.5,26.8-43.8Z"/>
  </g>
  <g id="t">
    <rect class="st1" x="324.7" y="62.6" width="26.8" height="121.1"/>
    <rect class="st1" x="324.7" y="71.3" width="26.8" height="67.9" transform="translate(443.4 -232.9) rotate(90)"/>
    <rect class="st0" x="324.7" y="91.9" width="26.8" height="26.8"/>
  </g>
  <rect id="l" class="st1" x="268.8" width="26.8" height="118.8"/>
  <g id="e">
    <path class="st3" d="M258.9,117.8h-120.3c0-33.2,26.9-60.1,60.1-60.1s60.1,26.9,60.1,60.1Z"/>
    <path class="st3" d="M199,151.5c-18.5,0-33.5-15-33.5-33.5s15-33.5,33.5-33.5,33.4,14.9,33.5,33.3h26.8c0-33.2-27.1-60.1-60.3-60.1s-60.3,27-60.3,60.3,27,60.3,60.3,60.3v-26.8Z"/>
    <path class="st4" d="M198.9,57.6c-33.2,0-60.1,26.9-60.2,60.1h26.8c0-18.4,15.1-33.3,33.5-33.3s33.4,14.9,33.5,33.3h26.4c0-33.2-26.9-60.1-60-60.1Z"/>
  </g>
  <g id="D">
    <path class="st1" d="M0,2.1h43.1c16.5,0,39.9,1.7,60.6,19.2,15,12.6,28.1,33.5,28.1,63.1s-17,53-28.8,63.1c-15,12.8-30.8,19-60.2,19H0V2.1Z"/>
    <path class="st0" d="M0,2.1v164.4h42.9c16.1,0,28.1-1.9,38.1-5.6L0,2.1Z"/>
  </g>
</svg>